<?xml version="1.0" encoding="UTF-8"?> <svg xmlns="http://www.w3.org/2000/svg" width="184" height="54" viewBox="0 0 184 54" fill="none"><g clip-path="url(#clip0_361_10518)"><path d="M63.6997 17.5868H66.9973C69.1218 17.5868 70.7002 17.8505 71.7325 18.3737C72.7649 18.8991 73.616 19.7519 74.2836 20.9345C74.9533 22.117 75.2861 23.4974 75.2861 25.0776C75.2861 26.2006 75.0984 27.2322 74.7251 28.1744C74.3518 29.1166 73.8357 29.8971 73.1766 30.5182C72.5175 31.1392 71.8051 31.5689 71.0372 31.8071C70.2693 32.0453 68.9383 32.1644 67.0464 32.1644H63.6997V17.5868ZM66.4619 20.2624V29.459H67.7545C69.0258 29.459 69.9494 29.3144 70.5231 29.023C71.0969 28.7316 71.564 28.2424 71.9288 27.5554C72.2935 26.8685 72.4748 26.022 72.4748 25.016C72.4748 23.4676 72.0418 22.268 71.1737 21.4152C70.3909 20.6473 69.1367 20.2645 67.4068 20.2645H66.4619V20.2624Z" fill="black"></path><path d="M94.1737 27.5555H85.4583C85.5842 28.3211 85.9212 28.9315 86.4672 29.3846C87.0133 29.8376 87.7108 30.063 88.5597 30.063C89.5729 30.063 90.4452 29.71 91.1726 29.0017L93.4592 30.0715C92.8896 30.8776 92.2071 31.4732 91.4115 31.8603C90.6159 32.2473 89.6731 32.4409 88.5789 32.4409C86.8832 32.4409 85.501 31.907 84.4345 30.8415C83.368 29.7738 82.8347 28.4381 82.8347 26.8323C82.8347 25.2265 83.3659 23.8207 84.4302 22.7338C85.4946 21.647 86.8277 21.1046 88.4296 21.1046C90.1317 21.1046 91.516 21.647 92.5846 22.7338C93.6511 23.8207 94.1844 25.2563 94.1844 27.0386L94.1737 27.5533V27.5555ZM91.4605 25.4264C91.2814 24.8245 90.9273 24.3375 90.4005 23.9589C89.8736 23.5803 89.2614 23.3932 88.5639 23.3932C87.8067 23.3932 87.1434 23.6037 86.5739 24.027C86.2155 24.2907 85.8828 24.7565 85.5778 25.4243H91.4605V25.4264Z" fill="black"></path><path d="M102.068 21.3829H104.781V22.4889C105.395 21.9721 105.954 21.6126 106.453 21.4106C106.952 21.2085 107.464 21.1064 107.987 21.1064C109.058 21.1064 109.968 21.4786 110.715 22.2252C111.344 22.859 111.658 23.7969 111.658 25.039V32.1641H108.974V27.4424C108.974 26.1557 108.917 25.3006 108.802 24.8795C108.687 24.4563 108.484 24.1351 108.198 23.9139C107.91 23.6927 107.556 23.5821 107.132 23.5821C106.583 23.5821 106.112 23.765 105.72 24.1309C105.327 24.4967 105.054 25.0029 104.9 25.6495C104.822 25.9855 104.781 26.715 104.781 27.8359V32.162H102.068V21.3808V21.3829Z" fill="black"></path><path d="M120.309 17.4082H123.022V21.3812H124.633V23.7101H123.022V32.1624H120.309V23.7101H118.918V21.3812H120.309V17.4082Z" fill="black"></path><path d="M132.19 17.5868H133.681V23.0571L139.525 17.5868H141.487L134.466 24.1269L142.033 32.1644H140.088L133.681 25.3754V32.1644H132.19V17.5868Z" fill="black"></path><path d="M149.475 17.2207H150.866V32.1641H149.475V17.2207Z" fill="black"></path><path d="M170.232 21.3829V32.1641H168.861V30.3116C168.278 31.0177 167.624 31.5494 166.898 31.9067C166.173 32.264 165.38 32.4427 164.518 32.4427C162.986 32.4427 161.681 31.8897 160.598 30.7837C159.514 29.6778 158.972 28.3314 158.972 26.7448C158.972 25.1581 159.518 23.865 160.612 22.7612C161.707 21.6573 163.021 21.1064 164.558 21.1064C165.446 21.1064 166.25 21.2957 166.969 21.6722C167.688 22.0487 168.319 22.6144 168.863 23.3673V21.3851H170.234L170.232 21.3829ZM164.672 22.4421C163.897 22.4421 163.183 22.6314 162.528 23.0121C161.873 23.3907 161.35 23.9246 160.964 24.6115C160.576 25.2985 160.384 26.0238 160.384 26.7895C160.384 27.5551 160.58 28.274 160.971 28.9674C161.361 29.6607 161.886 30.1988 162.545 30.5859C163.204 30.973 163.91 31.1644 164.665 31.1644C165.42 31.1644 166.148 30.973 166.828 30.5902C167.508 30.2074 168.033 29.6905 168.402 29.0354C168.769 28.3825 168.952 27.6466 168.952 26.8277C168.952 25.5814 168.541 24.5371 167.717 23.6991C166.894 22.8611 165.879 22.4421 164.676 22.4421H164.672Z" fill="black"></path><path d="M178.533 21.3833H179.954V22.9593C180.378 22.3382 180.824 21.8746 181.296 21.5662C181.767 21.2599 182.255 21.1046 182.767 21.1046C183.151 21.1046 183.563 21.228 184 21.4705L183.275 22.6402C182.983 22.5148 182.738 22.4509 182.539 22.4509C182.076 22.4509 181.628 22.6402 181.198 23.0209C180.767 23.4017 180.438 23.9908 180.214 24.7905C180.041 25.4052 179.956 26.6473 179.956 28.5168V32.1644H178.536V21.3833H178.533Z" fill="black"></path><path d="M25.5603 28.1246C25.3534 28.1905 25.1465 28.2522 24.9374 28.3075C24.1781 26.0211 23.3548 23.0924 22.7255 20.9336C22.9239 23.1009 23.4209 25.8233 24.2442 28.4712C20.9743 29.1455 17.4208 28.501 14.7759 26.4039C16.1069 27.8396 17.9732 28.7605 19.8865 29.1561C21.4137 29.4773 22.958 29.4326 24.4575 29.1306C25.4963 32.2443 26.9915 35.1815 28.9965 36.9001C27.2155 34.6115 26.2044 31.9019 25.2446 29.205C25.2169 29.1285 25.1891 29.0476 25.1614 28.9689C27.2667 28.4245 29.2695 27.3865 30.9951 26.121C32.5735 24.9662 33.9984 23.6262 35.2654 22.1629C32.3517 24.6344 29.2461 26.9909 25.5603 28.1267V28.1246Z" fill="black"></path><path d="M52.9819 43.9093L50.9427 41.876C50.3668 43.5009 49.5755 45.0408 48.5239 46.4275C46.8047 48.6565 44.5395 50.4813 41.9565 51.6043C41.724 51.6851 41.4915 51.7596 41.2568 51.8319L43.1467 53.7163L52.9819 43.9093Z" fill="#B480D3"></path><path d="M44.9621 45.9572C43.8102 47.1142 42.5027 48.0479 41.0374 48.7774C40.3271 49.0603 39.6019 49.2772 38.8638 49.4453L40.5702 51.1468C40.9286 51.0447 41.2869 50.9341 41.6389 50.8086C44.0577 49.7345 46.2056 47.9798 47.7989 45.8849C48.8676 44.4301 49.6568 42.8307 50.2135 41.1483L48.1274 39.0682C47.8544 41.5673 46.9479 43.9218 44.9599 45.9572H44.9621Z" fill="#B480D3"></path><path d="M33.9157 43.69C35.8589 44.0176 37.8191 44.5068 39.7431 44.0346C43.4267 42.901 44.1199 39.9042 43.2326 36.4501C43.0812 35.81 42.902 35.1719 42.71 34.5381L33.5915 43.6305C33.7003 43.6518 33.8048 43.6688 33.9136 43.69H33.9157Z" fill="#B480D3"></path><path d="M44.0512 36.2673C44.9876 40.1127 44.0768 43.4859 39.9047 44.6834C37.8719 45.1513 35.7773 44.6026 33.8129 44.224C33.7339 44.207 33.6593 44.1921 33.5804 44.1772L38.1385 48.7223C39.0152 48.5585 39.8769 48.3331 40.6747 47.9843C41.9971 47.3101 43.2748 46.3955 44.3114 45.3278C46.2994 43.2392 47.1227 40.8125 47.2955 38.2368L43.6331 34.585C43.791 35.1422 43.936 35.7037 44.0533 36.2673H44.0512Z" fill="#B480D3"></path><path d="M0.0156562 25.2715C-0.0973921 28.9191 0.487046 32.5497 0.984032 36.1505C1.61113 39.7428 2.1849 43.3755 3.58201 46.7742C4.8938 50.224 8.20633 52.9145 11.9668 53.2867C12.8925 53.3909 13.8438 53.291 14.7546 53.1591C17.4635 52.7997 20.1553 52.1233 22.8514 51.8213C24.6602 51.5788 26.4284 51.7511 28.1924 52.1574C32.4904 52.8592 37.0422 53.1208 41.2591 51.8319L40.5723 51.1471C36.6262 52.2722 32.3453 52.0127 28.3161 51.4321C26.5052 51.0429 24.6111 50.8982 22.7746 51.1769C20.936 51.4066 19.1507 51.8149 17.3632 52.1659C15.6014 52.4721 13.7948 52.9464 12.0094 52.8124C10.2327 52.6742 8.52841 51.9489 7.09291 50.8748C4.09393 48.6884 3.05303 44.9175 2.18917 41.4847C1.76257 39.7172 1.40636 37.9285 1.11201 36.1356C0.597962 32.5305 0.0263211 28.9191 0.105242 25.2715C0.0988427 23.453 0.111641 21.6218 0.519041 19.8416C0.91791 18.0635 1.56634 16.3535 2.22116 14.6562C1.55141 16.3492 0.888048 18.0529 0.474248 19.8309C0.051917 21.6133 0.0220552 23.453 0.0156562 25.2715Z" fill="black"></path><path d="M51.5872 27.7216C50.8854 24.0825 49.3881 19.4353 48.8826 15.7728C48.7759 14.8391 48.7588 12.6825 48.7098 11.702C48.8378 6.97817 45.7833 2.43304 41.3446 0.780452C37.8422 -0.599891 33.9644 0.11474 30.4279 0.948476C26.8701 1.79923 23.3912 2.97326 19.7225 3.13278C17.4509 3.3795 15.1792 3.79636 13.0377 4.60458C10.8855 5.41066 8.9893 6.75698 7.3405 8.33725C5.32056 10.1493 3.2281 12.072 2.22133 14.6541C3.24303 12.0784 5.34189 10.1727 7.37463 8.37553C9.02769 6.81015 10.9239 5.48723 13.0718 4.69816C15.2112 3.91334 17.4701 3.50286 19.7374 3.29017C21.5569 3.1817 23.3934 2.97114 25.1723 2.54151C29.5769 1.58867 34.022 0.0190303 38.5738 0.55713C43.0275 1.13777 46.8669 4.68327 47.7627 9.07102C48.2491 11.6509 47.8097 14.6456 48.3173 17.2276C48.8826 20.3477 50.1581 24.7759 50.7489 27.8875C51.5403 32.2136 51.6064 36.9416 50.2157 41.1486L50.9452 41.876C52.5278 37.4031 52.466 32.2625 51.5893 27.7216H51.5872Z" fill="black"></path><path d="M4.24285 36.1551C6.06016 42.4847 10.2067 49.2759 17.525 49.497C22.2133 49.9118 26.9101 50.2096 31.624 50.1202C34.0321 50.0224 36.5021 49.9841 38.8634 49.4439L38.1381 48.7207C37.5089 48.8377 36.8733 48.927 36.2505 49.0036C31.6091 49.5013 26.9165 49.3737 22.2517 49.1908C20.1272 49.0823 17.9622 48.9781 15.8442 48.7548C13.404 48.3443 11.126 46.9895 9.46014 45.1816C6.2308 41.7467 4.63106 37.2186 3.48778 32.7224C2.16532 26.7692 1.59582 19.9568 4.92114 14.5439C0.990048 20.8629 2.25278 29.364 4.24499 36.1551H4.24285Z" fill="black"></path><path d="M45.4948 23.2492C45.1535 21.737 44.8549 20.2163 44.6757 18.6892C44.4368 15.5712 44.1616 12.366 42.8648 9.46066C42.227 8.00375 41.2821 6.5596 39.853 5.77265C37.0311 4.0669 33.5287 4.60287 30.5916 5.65567C29.1177 6.16825 27.6289 6.62553 26.1016 6.92542C24.5766 7.2402 23.0195 7.36994 21.4581 7.4146C18.3354 7.45076 15.1637 7.79957 12.2266 8.92256C9.33636 10.0434 6.54641 11.8534 4.91895 14.546C6.56348 11.8747 9.36196 10.086 12.2522 8.99274C15.1893 7.90166 18.3418 7.56348 21.4624 7.57624C23.028 7.56774 24.6043 7.47415 26.1528 7.19341C30.6812 6.47665 35.1519 3.52454 39.6034 6.18527C40.9259 6.9318 41.7492 8.28875 42.3379 9.68398C43.5516 12.5553 43.7414 15.6839 43.927 18.7657C44.0763 20.3418 44.3664 21.8923 44.7077 23.4236C45.6227 28.0177 47.6171 33.3859 47.2929 38.2373L48.1269 39.0689C48.69 33.9134 46.5378 28.1325 45.4926 23.2471L45.4948 23.2492Z" fill="black"></path><path d="M7.07275 29.8945C7.19007 30.8048 7.32658 31.713 7.47589 32.6191C7.33724 31.7343 7.20073 30.8218 7.07275 29.8945Z" fill="black"></path><path d="M41.5486 24.7241C41.7043 22.4164 42.4743 20.0896 42.4189 17.7309C42.1779 14.6278 40.6272 11.5034 37.9375 9.80832C36.7387 9.05753 35.3182 8.40883 33.8741 8.71723C33.3025 8.82357 32.4685 9.19152 31.9182 9.36805C25.6387 11.6651 19.0904 13.0773 12.4291 13.6643C10.2492 13.926 8.35082 14.4662 7.59788 16.7504C6.16451 20.8085 6.47806 25.5302 7.07316 29.8967C6.8492 28.1611 6.69136 26.415 6.6487 24.6646C6.6167 22.0208 6.75321 19.2857 7.73225 16.8036C8.498 14.6129 10.3686 14.1471 12.4632 13.9408C18.4868 13.5218 24.4741 12.5031 30.2331 10.6591C31.1653 10.3634 32.1763 10.055 33.1063 9.7275C33.3537 9.63817 33.7611 9.50843 34.0128 9.46589C35.2627 9.23619 36.4615 9.84873 37.4853 10.4996C39.6631 11.9097 40.9471 14.3258 41.3951 16.8419C41.6532 18.0585 41.4356 19.3516 41.2202 20.6554C40.8746 22.6206 40.4331 24.6943 40.6442 26.7361C40.9471 29.4288 41.9326 31.9661 42.709 34.5375L43.1462 34.1015L43.6304 34.5843C42.709 31.3238 41.3033 28.1526 41.5486 24.7241Z" fill="black"></path><path d="M22.3371 45.8941C21.2237 46.5322 20.1145 47.4872 18.8027 47.5744C17.4675 47.568 16.1855 47.0831 15.134 46.2663C10.6952 43.2185 8.74569 37.6248 7.47656 32.6182C8.69876 37.5717 10.7038 43.3355 15.0551 46.3727C16.1152 47.2107 17.4376 47.7275 18.7985 47.7509C20.1764 47.6999 21.3132 46.7555 22.48 46.126C26.5028 43.6205 29.0261 43.21 33.5801 44.1735L33.3113 43.9055L33.5907 43.6269C28.9813 42.7612 26.362 43.2462 22.335 45.892L22.3371 45.8941Z" fill="black"></path></g><defs><clipPath id="clip0_361_10518"><rect width="184" height="53.7143" fill="white"></rect></clipPath></defs></svg> 